<svg width="52" height="54" viewBox="0 0 52 54" xmlns="http://www.w3.org/2000/svg">
    <g clip-path="url(#clip0_32_40)">
        <path
            fill-rule="evenodd"
            clip-rule="evenodd"
            d="M3.65531 3.7959C0 7.59179 0 13.7012 0 25.92V28.08C0 40.2988 0 46.4082 3.65531 50.2041C7.31062 54 13.1937 54 24.96 54H27.04C38.8063 54 44.6893 54 48.3447 50.2041C52 46.4082 52 40.2988 52 28.08V25.92C52 13.7012 52 7.59179 48.3447 3.7959C44.6893 0 38.8063 0 27.04 0H24.96C13.1937 0 7.31062 0 3.65531 3.7959ZM8.77513 16.4251C9.0568 30.4651 15.8168 38.9026 27.6684 38.9026H28.3402V30.8701C32.6952 31.3201 35.9883 34.6276 37.31 38.9026H43.4634C41.7734 32.5126 37.3316 28.9801 34.5582 27.6301C37.3316 25.9651 41.2316 21.9151 42.1632 16.4251H36.5731C35.3598 20.8801 31.7636 24.9301 28.3402 25.3126V16.4251H22.75V31.9951C19.2833 31.0951 14.9068 26.7301 14.7118 16.4251H8.77513Z"
            fill="#A68E86"
        />
    </g>
    <defs>
        <clipPath id="clip0_32_40">
            <rect width="52" height="54" fill="white"/>
        </clipPath>
    </defs>
</svg>
